<?xml version="1.0" encoding="iso-8859-1"?>
<!-- Generator: Adobe Illustrator 19.0.0, SVG Export Plug-In . SVG Version: 6.00 Build 0)  -->
<svg version="1.1" id="Layer_1" xmlns="http://www.w3.org/2000/svg" xmlns:xlink="http://www.w3.org/1999/xlink" x="0px" y="0px"
	 viewBox="0 0 509.287 509.287" style="enable-background:new 0 0 509.287 509.287;" xml:space="preserve">
<circle style="fill:#F0582F;" cx="254.644" cy="254.644" r="254.644"/>
<path style="fill:#FCFCFD;" d="M404.514,78.326h-299.74c-14.58,0-26.448,11.868-26.448,26.448v299.74
	c0,14.58,11.868,26.448,26.448,26.448h299.74c14.58,0,26.448-11.868,26.448-26.448v-299.74
	C430.962,90.193,419.094,78.326,404.514,78.326z"/>
<polygon style="fill:#6EB1E1;" points="249.219,263.121 332.97,179.03 398.072,244.132 398.072,107.825 111.216,107.825 
	111.216,275.666 186.49,200.392 "/>
<polygon style="fill:#4F5565;" points="332.97,179.03 249.219,263.121 186.49,200.392 111.216,275.666 111.216,350.601 
	398.072,350.601 398.072,244.132 "/>
<circle style="fill:#FFFFFC;" cx="252.27" cy="166.485" r="25.091"/>
<g>
</g>
<g>
</g>
<g>
</g>
<g>
</g>
<g>
</g>
<g>
</g>
<g>
</g>
<g>
</g>
<g>
</g>
<g>
</g>
<g>
</g>
<g>
</g>
<g>
</g>
<g>
</g>
<g>
</g>
</svg>
